<?xml version="1.0" standalone="no"?>
<!DOCTYPE svg PUBLIC "-//W3C//DTD SVG 20010904//EN"
 "http://www.w3.org/TR/2001/REC-SVG-20010904/DTD/svg10.dtd">
<svg version="1.0" xmlns="http://www.w3.org/2000/svg"
 width="1226.000000pt" height="1898.000000pt" viewBox="0 0 1226.000000 1898.000000"
 preserveAspectRatio="xMidYMid meet">

<g transform="translate(0.000000,1898.000000) scale(0.100000,-0.100000)"
fill="#000000" stroke="none">
<path d="M5800 18855 c-282 -63 -546 -253 -751 -541 -31 -43 -282 -452 -556
-909 -275 -456 -1305 -2166 -2288 -3800 -984 -1633 -1815 -3021 -1847 -3084
-109 -217 -201 -511 -247 -791 -87 -531 -39 -1104 134 -1610 57 -167 173 -409
258 -538 87 -133 4736 -6838 4806 -6932 68 -90 213 -238 298 -303 143 -109
318 -192 472 -223 115 -23 334 -15 441 15 106 31 261 109 355 179 135 101 280
258 380 412 47 72 4496 7459 4583 7609 162 279 274 631 327 1021 23 164 31
526 16 701 -42 498 -200 996 -424 1337 -69 105 -4724 6822 -4790 6911 -194
263 -441 448 -704 527 -75 23 -111 27 -243 30 -110 3 -174 -1 -220 -11z m450
-2245 c103 -27 270 -104 354 -164 195 -139 347 -360 414 -604 l27 -97 3 -4035
c2 -3612 1 -4044 -13 -4120 -64 -348 -288 -642 -600 -786 -629 -291 -1350 72
-1503 756 -16 70 -17 370 -17 4110 0 3404 2 4046 14 4105 85 431 414 760 847
850 106 22 364 14 474 -15z m3785 -6025 c516 -131 867 -605 867 -1170 -1 -226
-42 -400 -142 -594 -312 -603 -1031 -795 -1576 -420 -80 56 -203 176 -268 264
-102 135 -190 344 -221 520 -20 116 -20 333 0 448 45 257 160 483 340 662 170
171 395 283 630 314 101 14 264 3 370 -24z m-7685 -35 c123 -15 221 -45 336
-100 538 -260 794 -919 590 -1517 -160 -469 -577 -783 -1041 -783 -455 0 -854
286 -1033 740 -75 190 -102 460 -68 671 56 335 245 637 508 812 219 146 463
207 708 177z m6823 -5361 c21 -6 56 -26 77 -45 106 -96 86 -263 -40 -334 l-45
-25 -3000 0 -3000 0 -47 28 c-118 69 -140 226 -44 322 23 22 57 46 76 52 48
15 5968 18 6023 2z m-1050 -850 c49 -13 115 -73 138 -124 51 -112 -12 -254
-130 -294 -25 -8 -552 -11 -1981 -11 l-1946 0 -53 26 c-132 66 -159 243 -54
346 73 72 -89 67 2053 67 1335 1 1947 -2 1973 -10z m-1002 -871 c52 -15 117
-73 140 -122 11 -25 19 -64 19 -101 0 -37 -8 -76 -19 -101 -23 -51 -90 -108
-144 -123 -31 -9 -312 -11 -1058 -9 l-1016 3 -49 30 c-30 19 -60 49 -78 79
-78 126 -20 291 121 342 52 18 2024 20 2084 2z m-587 -924 c26 -4 70 -21 98
-38 163 -97 154 -338 -16 -429 -40 -22 -50 -22 -478 -25 -430 -3 -438 -2 -488
19 -223 96 -189 422 50 470 44 9 772 11 834 3z"/>
</g>
</svg>
